<?xml version="1.0" encoding="UTF-8"?>
<svg clip-rule="evenodd" fill-rule="evenodd" image-rendering="optimizeQuality" shape-rendering="geometricPrecision" text-rendering="geometricPrecision" version="1.1" viewBox="0 0 150 54" xmlns="http://www.w3.org/2000/svg">
<rect width="150" height="54" fill-opacity="0" pointer-events="none"/>
<g transform="matrix(.3375 0 0 .3375 37.844 7.1054e-15)">
<rect width="235" height="80" fill-opacity="0" pointer-events="none"/>
<g transform="matrix(.78024 0 0 .78024 -186.81 -64.962)">
<metadata>Created by potrace 1.15, written by Peter Selinger 2001-2017</metadata>
<g transform="translate(0 374) scale(.1 -.1)">
<path d="m1845 2713c-129-11-326-95-437-188-151-124-247-290-290-500-6-28-8-114-5-195 4-123 9-157 32-225 93-278 303-479 580-556 117-33 353-33 474-1 332 90 516 340 538 735l6 117h-396-397v-125-125l233-2 232-3-3-30c-9-82-93-202-177-251-88-51-152-67-275-68-104-1-122 2-188 28-167 65-294 207-346 388-21 74-21 241 0 311 48 159 138 277 266 351 179 104 421 83 585-50 23-19 47-34 53-34 13 0 210 169 210 180 0 4-24 28-52 52-175 149-392 213-643 191z"/>
<path d="m3405 2184c-183-43-273-92-364-198-46-53-78-112-107-196-29-85-27-292 4-382 60-172 198-305 377-361 92-29 281-30 365-3 209 69 336 195 400 399 27 85 27 232 0 328-51 186-191 330-380 391-63 20-246 34-295 22zm231-289c65-29 120-84 151-152 33-72 35-194 4-266-28-66-101-140-163-167-74-32-178-31-250 2-196 91-246 331-107 509 77 98 238 131 365 74z"/>
<path d="m4721 2170c-219-61-353-196-410-414-25-95-27-189-6-283 48-210 168-348 366-420 67-24 87-27 214-27 158 1 214 14 327 77 70 39 181 148 173 169-5 12-155 128-177 136-5 2-27-13-50-33-51-47-125-80-206-95-112-20-240 22-306 100-25 30-56 91-56 111 0 5 192 10 428 11l427 3 3 108c5 184-37 295-153 412-110 111-213 154-390 161-90 3-124 0-184-16zm297-255c23-10 61-38 85-65 42-46 74-120 62-140-4-6-114-10-286-10-311 0-303-2-274 66 34 82 103 144 183 164 53 13 179 5 230-15z"/>
<path d="m6220 2181c-83-27-142-76-196-161l-29-45-5 93-5 93-138 2-137 2v-562-563h138 139l6 278c6 287 14 348 61 455 21 48 85 112 132 132 47 19 151 19 197 0 60-25 54-34 88 130 25 118 24 118-13 134-39 15-203 24-238 12z"/>
</g>
</g>
<g transform="matrix(.1476 0 0 .1476 -4.8001 1.7915)">
<metadata>Created by potrace 1.15, written by Peter Selinger 2001-2017</metadata>
</g>
</g>
</svg>
